# xmcd CD database file
#
# Track frame offsets:
#	182
#	27765
#	59100
#	79160
#	111335
#	162550
#	192492
#
# Disc length: 2978 seconds
#
# Revision: 1
# Processed by: cddbd v1.5.2PL0 Copyright (c) Steve Scherf et al.
# Submitted via: CDex 1.51
#
DISCID=620ba007
DTITLE=The Kenny Burrell Trio - Live At The Village Vanguard NYC - 15/12/78
DYEAR=1980
DGENRE=Jazz
TTITLE0=Second Balcony Jump (Live)
TTITLE1=Willow Weep For Me (Live)
TTITLE2=Work Song (Live)
TTITLE3=Woodyn 'You (Live)
TTITLE4=In The Still Of The Night (Live)
TTITLE5=Medley: Don't You Know I Care? - Love You Madly (Live)
TTITLE6=It's Getting Dark (Live)
EXTD=YEAR: 1980
EXTT0=
EXTT1=
EXTT2=
EXTT3=
EXTT4=
EXTT5=
EXTT6=
PLAYORDER=
